<svg aria-hidden="true" style="position: absolute; width: 0; height: 0; overflow: hidden;" version="1.1" xmlns="http://www.w3.org/2000/svg" xmlns:xlink="http://www.w3.org/1999/xlink">
<defs>
<symbol id="icon-close" viewBox="0 0 32 32">
<path fill="" style="fill: var(--color1)" d="M1.645 32c-0.001 0-0.001 0-0.002 0-0.909 0-1.645-0.737-1.645-1.645 0-0.455 0.185-0.867 0.484-1.165l28.706-28.706c0.301-0.317 0.725-0.515 1.196-0.515 0.91 0 1.647 0.737 1.647 1.647 0 0.47-0.197 0.894-0.512 1.194l-0.001 0.001-28.706 28.706c-0.299 0.299-0.711 0.484-1.167 0.484h-0z"></path>
<path fill="" style="fill: var(--color1)" d="M30.355 32c-0.001 0-0.002 0-0.003 0-0.454 0-0.864-0.185-1.16-0.484l-28.71-28.706c-0.28-0.295-0.452-0.694-0.452-1.133 0-0.91 0.737-1.647 1.647-1.647 0.439 0 0.839 0.172 1.134 0.453l-0.001-0.001 28.706 28.706c0.3 0.298 0.486 0.711 0.486 1.167 0 0.909-0.737 1.645-1.645 1.645v0z"></path>
</symbol>
</defs>
</svg>
