<svg width="24" height="17" viewBox="0 0 24 17" fill="none" xmlns="http://www.w3.org/2000/svg">
<path d="M2.66668 0.833496L0 0.833496L0 16.8335H2.66668L2.66668 0.833496Z" fill="#0E0E0E"/>
<path d="M9.3737 0.833496L6.70703 0.833496L6.70703 16.8335H9.3737L9.3737 0.833496Z" fill="#0E0E0E"/>
<path d="M13.4142 0.833496L10.7476 0.833496L10.7476 16.8335H13.4142L13.4142 0.833496Z" fill="#0E0E0E"/>
<path d="M24.0001 0.833496L20.0405 0.833496L20.0405 16.8335H24.0001L24.0001 0.833496Z" fill="#0E0E0E"/>
<path d="M5.33346 0.833496L4.04053 0.833496L4.04053 16.8335H5.33346L5.33346 0.833496Z" fill="#0E0E0E"/>
<path d="M16 0.833496L14.707 0.833496L14.707 16.8335H16L16 0.833496Z" fill="#0E0E0E"/>
<path d="M18.6667 0.833496L17.3738 0.833496L17.3738 16.8335H18.6667L18.6667 0.833496Z" fill="#0E0E0E"/>
</svg>
